<?xml version="1.0" encoding="utf-8"?>
<!-- Generator: Adobe Illustrator 25.4.1, SVG Export Plug-In . SVG Version: 6.00 Build 0)  -->
<svg version="1.1" id="Layer_1" xmlns="http://www.w3.org/2000/svg" xmlns:xlink="http://www.w3.org/1999/xlink" x="0px" y="0px"
	 viewBox="0 0 597.24 174.96" style="enable-background:new 0 0 597.24 174.96;" xml:space="preserve">
<style type="text/css">
	.st0{fill:#0078BF;}
	.st1{fill:#FCBD1B;}
</style>
<g>
	<g>
		<g>
			<g>
				<path class="st0" d="M19.78,155.09c1.59,0.81,4.03,1.62,6.55,1.62c2.71,0,4.15-1.12,4.15-2.83c0-1.63-1.24-2.55-4.38-3.68
					c-4.34-1.52-7.17-3.91-7.17-7.71c0-4.46,3.72-7.87,9.88-7.87c2.95,0,5.12,0.62,6.67,1.32l-1.32,4.76
					c-1.05-0.5-2.91-1.24-5.46-1.24c-2.56,0-3.8,1.17-3.8,2.52c0,1.67,1.47,2.4,4.84,3.68c4.61,1.71,6.78,4.11,6.78,7.79
					c0,4.38-3.37,8.14-10.54,8.14c-2.98,0-5.93-0.81-7.4-1.62L19.78,155.09z"/>
				<path class="st0" d="M56.43,156.56c0,1.82,0.08,3.56,0.27,4.61h-5.31l-0.35-1.9h-0.12c-1.24,1.52-3.18,2.33-5.42,2.33
					c-3.84,0-6.12-2.79-6.12-5.81c0-4.92,4.42-7.28,11.12-7.24v-0.27c0-1-0.54-2.44-3.45-2.44c-1.94,0-3.99,0.66-5.23,1.43
					l-1.09-3.8c1.32-0.74,3.91-1.67,7.36-1.67c6.31,0,8.33,3.72,8.33,8.18V156.56z M50.7,152.22c-3.1-0.04-5.5,0.7-5.5,2.98
					c0,1.51,1.01,2.25,2.33,2.25c1.47,0,2.67-0.97,3.06-2.17c0.08-0.31,0.12-0.66,0.12-1.01V152.22z"/>
				<path class="st0" d="M64.99,142.23l2.56,8.79c0.47,1.59,0.81,3.1,1.08,4.61h0.12c0.31-1.55,0.62-2.98,1.05-4.61l2.44-8.79h6.2
					l-7.05,18.94H65.5l-6.9-18.94H64.99z"/>
				<path class="st0" d="M85.1,153.57c0.19,2.44,2.59,3.61,5.35,3.61c2.01,0,3.64-0.28,5.23-0.77l0.78,3.99
					c-1.94,0.77-4.3,1.2-6.86,1.2c-6.43,0-10.11-3.76-10.11-9.69c0-4.8,2.99-10.11,9.57-10.11c6.12,0,8.45,4.77,8.45,9.45
					c0,1.01-0.12,1.9-0.2,2.33H85.1z M92.04,149.55c0-1.43-0.62-3.83-3.33-3.83c-2.48,0-3.49,2.25-3.64,3.83H92.04z"/>
				<path class="st0" d="M108.85,148.27c0-2.36-0.08-4.38-0.16-6.04h4.96l0.27,2.56h0.12c0.82-1.2,2.48-2.99,5.74-2.99
					c2.44,0,4.38,1.24,5.19,3.22h0.08c0.7-1.01,1.55-1.74,2.44-2.29c1.05-0.62,2.21-0.93,3.61-0.93c3.64,0,6.39,2.56,6.39,8.22
					v11.15h-5.73v-10.3c0-2.75-0.89-4.34-2.79-4.34c-1.36,0-2.33,0.93-2.71,2.06c-0.16,0.42-0.23,1.04-0.23,1.51v11.08h-5.73v-10.62
					c0-2.4-0.85-4.03-2.71-4.03c-1.51,0-2.4,1.16-2.75,2.13c-0.2,0.46-0.23,1.01-0.23,1.47v11.04h-5.73V148.27z"/>
				<path class="st0" d="M160.88,151.48c0,6.93-4.92,10.11-9.99,10.11c-5.54,0-9.8-3.64-9.8-9.76c0-6.12,4.03-10.04,10.11-10.04
					C157,141.8,160.88,145.79,160.88,151.48z M147.17,151.68c0,3.26,1.35,5.7,3.87,5.7c2.28,0,3.76-2.29,3.76-5.7
					c0-2.83-1.09-5.69-3.76-5.69C148.21,145.99,147.17,148.89,147.17,151.68z"/>
				<path class="st0" d="M164.52,148.27c0-2.36-0.08-4.38-0.15-6.04h5.11l0.27,2.59h0.11c0.78-1.2,2.71-3.02,5.85-3.02
					c3.88,0,6.78,2.56,6.78,8.14v11.23h-5.89v-10.5c0-2.44-0.85-4.11-2.98-4.11c-1.63,0-2.6,1.13-2.98,2.21
					c-0.16,0.38-0.23,0.93-0.23,1.47v10.92h-5.89V148.27z"/>
				<path class="st0" d="M191.76,153.57c0.19,2.44,2.6,3.61,5.35,3.61c2.02,0,3.64-0.28,5.23-0.77l0.78,3.99
					c-1.94,0.77-4.3,1.2-6.86,1.2c-6.43,0-10.11-3.76-10.11-9.69c0-4.8,2.98-10.11,9.57-10.11c6.12,0,8.44,4.77,8.44,9.45
					c0,1.01-0.11,1.9-0.19,2.33H191.76z M198.69,149.55c0-1.43-0.62-3.83-3.33-3.83c-2.48,0-3.49,2.25-3.64,3.83H198.69z"/>
				<path class="st0" d="M211.87,142.23l2.83,9.3c0.31,1.12,0.7,2.52,0.93,3.52h0.12c0.27-1.01,0.58-2.44,0.86-3.52l2.32-9.3h6.32
					l-4.42,12.47c-2.71,7.52-4.53,10.54-6.66,12.43c-2.06,1.78-4.22,2.4-5.7,2.6l-1.24-4.99c0.74-0.12,1.67-0.46,2.56-1.01
					c0.89-0.47,1.86-1.4,2.44-2.37c0.19-0.27,0.31-0.57,0.31-0.85c0-0.19-0.04-0.5-0.27-0.96l-6.93-17.32H211.87z"/>
				<path class="st0" d="M230.68,161.59c-1.98,0-3.41-1.51-3.41-3.57c0-2.09,1.43-3.6,3.48-3.6c2.06,0,3.45,1.47,3.45,3.6
					c0,2.06-1.39,3.57-3.49,3.57H230.68z"/>
			</g>
			<g>
				<path class="st0" d="M247.35,135.05h5.93v21.16h10.38v4.96h-16.31V135.05z"/>
				<path class="st0" d="M273.81,136.96c0,1.63-1.24,2.95-3.18,2.95c-1.86,0-3.1-1.32-3.06-2.95c-0.04-1.71,1.2-2.98,3.1-2.98
					C272.57,133.98,273.78,135.25,273.81,136.96z M267.73,161.17v-18.94h5.89v14.31v4.63H267.73z"/>
				<path class="st0" d="M283.5,142.23l2.56,8.79c0.46,1.59,0.81,3.1,1.08,4.61h0.11c0.31-1.55,0.62-2.98,1.05-4.61l2.44-8.79h6.2
					l-7.05,18.94H284l-6.89-18.94H283.5z"/>
				<path class="st0" d="M303.61,153.57c0.19,2.44,2.6,3.61,5.34,3.61c2.02,0,3.64-0.28,5.23-0.77l0.77,3.99
					c-1.94,0.77-4.3,1.2-6.85,1.2c-6.43,0-10.12-3.76-10.12-9.69c0-4.8,2.99-10.11,9.57-10.11c6.12,0,8.45,4.77,8.45,9.45
					c0,1.01-0.12,1.9-0.2,2.33H303.61z M310.55,149.55c0-1.43-0.62-3.83-3.34-3.83c-2.48,0-3.49,2.25-3.64,3.83H310.55z"/>
				<path class="st0" d="M327.36,133.66h5.88v10.81h0.08c1.12-1.63,3.1-2.68,5.74-2.68c4.53,0,7.86,3.76,7.82,9.57
					c0,6.82-4.33,10.22-8.67,10.22c-2.21,0-4.34-0.81-5.7-3.06h-0.08l-0.23,2.63h-4.99c0.07-1.23,0.16-3.52,0.16-5.65V133.66z
					 M333.24,153.11c0,0.39,0.04,0.74,0.12,1.05c0.38,1.58,1.74,2.78,3.45,2.78c2.52,0,4.07-1.94,4.07-5.34
					c0-2.95-1.32-5.27-4.07-5.27c-1.59,0-3.07,1.2-3.45,2.91c-0.08,0.35-0.12,0.69-0.12,1.09V153.11z"/>
				<path class="st0" d="M355.18,153.57c0.19,2.44,2.59,3.61,5.34,3.61c2.02,0,3.64-0.28,5.23-0.77l0.78,3.99
					c-1.93,0.77-4.3,1.2-6.86,1.2c-6.43,0-10.11-3.76-10.11-9.69c0-4.8,2.98-10.11,9.57-10.11c6.12,0,8.44,4.77,8.44,9.45
					c0,1.01-0.12,1.9-0.19,2.33H355.18z M362.11,149.55c0-1.43-0.62-3.83-3.32-3.83c-2.48,0-3.49,2.25-3.65,3.83H362.11z"/>
				<path class="st0" d="M378.46,137.07v5.15h4.23v4.34h-4.23v6.86c0,2.29,0.54,3.33,2.33,3.33c0.81,0,1.17-0.04,1.75-0.16
					l0.04,4.46c-0.78,0.3-2.17,0.54-3.84,0.54c-1.9,0-3.48-0.69-4.41-1.66c-1.09-1.12-1.63-2.95-1.63-5.62v-7.75h-2.52v-4.34h2.52
					v-3.57L378.46,137.07z"/>
				<path class="st0" d="M393.45,137.07v5.15h4.22v4.34h-4.22v6.86c0,2.29,0.54,3.33,2.32,3.33c0.81,0,1.16-0.04,1.75-0.16
					l0.04,4.46c-0.77,0.3-2.17,0.54-3.83,0.54c-1.89,0-3.49-0.69-4.42-1.66c-1.08-1.12-1.63-2.95-1.63-5.62v-7.75h-2.52v-4.34h2.52
					v-3.57L393.45,137.07z"/>
				<path class="st0" d="M406.39,153.57c0.19,2.44,2.6,3.61,5.36,3.61c2.01,0,3.63-0.28,5.22-0.77l0.77,3.99
					c-1.93,0.77-4.29,1.2-6.85,1.2c-6.43,0-10.11-3.76-10.11-9.69c0-4.8,2.98-10.11,9.57-10.11c6.11,0,8.44,4.77,8.44,9.45
					c0,1.01-0.12,1.9-0.2,2.33H406.39z M413.33,149.55c0-1.43-0.62-3.83-3.33-3.83c-2.48,0-3.49,2.25-3.65,3.83H413.33z"/>
				<path class="st0" d="M423.08,148.46c0-2.79-0.07-4.61-0.15-6.23h5.08l0.19,3.49h0.16c0.97-2.76,3.29-3.92,5.11-3.92
					c0.54,0,0.81,0,1.24,0.08v5.58c-0.42-0.12-0.93-0.19-1.59-0.19c-2.17,0-3.64,1.16-4.02,2.98c-0.08,0.39-0.12,0.85-0.12,1.32v9.6
					h-5.9V148.46z"/>
				<path class="st0" d="M440.77,161.59c-1.98,0-3.4-1.51-3.4-3.57c0-2.09,1.43-3.6,3.48-3.6c2.05,0,3.45,1.47,3.45,3.6
					c0,2.06-1.39,3.57-3.49,3.57H440.77z"/>
			</g>
		</g>
		<g>
			<g>
				<g>
					<g>
						<path class="st1" d="M524.01,52.8c3.27,0,5.96-1.7,6.33-3.9l3.23-36.52c0-3.61-4.23-6.58-9.55-6.58
							c-5.31,0-9.53,2.97-9.53,6.58l3.22,36.52c0.36,2.2,3.05,3.9,6.31,3.9H524.01z"/>
						<path class="st1" d="M504.28,64.21c1.64-2.83,1.51-6.01-0.21-7.42l-30.02-21.05c-3.12-1.81-7.8,0.37-10.46,4.97
							c-2.66,4.6-2.19,9.74,0.93,11.54l33.23,15.47c2.08,0.77,4.91-0.71,6.54-3.54L504.28,64.21z"/>
						<path class="st1" d="M543.77,64.19c1.64,2.83,4.46,4.31,6.54,3.54l33.24-15.47c3.13-1.8,3.58-6.94,0.93-11.54
							c-2.67-4.6-7.36-6.78-10.47-4.97l-30.02,21.05c-1.72,1.41-1.84,4.59-0.21,7.42L543.77,64.19z"/>
					</g>
					<g>
						<path class="st1" d="M524.01,98.41c3.27,0,5.96,1.69,6.33,3.89l3.23,36.52c0,3.62-4.23,6.57-9.55,6.57
							c-5.31,0-9.53-2.96-9.53-6.57l3.22-36.52c0.36-2.2,3.05-3.89,6.31-3.89H524.01z"/>
						<path class="st1" d="M543.77,87.01c1.64-2.83,4.46-4.3,6.54-3.52l33.24,15.46c3.13,1.81,3.58,6.95,0.93,11.56
							c-2.67,4.59-7.36,6.77-10.47,4.97l-30.02-21.04c-1.72-1.43-1.84-4.61-0.21-7.43L543.77,87.01z"/>
						<path class="st1" d="M504.28,87c1.64,2.83,1.51,6.01-0.21,7.43l-30.02,21.04c-3.12,1.8-7.8-0.38-10.46-4.97
							c-2.66-4.6-2.19-9.75,0.93-11.56l33.23-15.46c2.08-0.78,4.91,0.69,6.54,3.52L504.28,87z"/>
					</g>
				</g>
			</g>
			<g>
				<path class="st0" d="M351.12,79.8c0-13.79-5.89-25.92-25.79-25.92c-10.22,0-18.33,2.87-22.76,5.43l3.24,11.08
					c4.04-2.55,10.49-4.67,16.59-4.67c10.1-0.03,11.75,5.71,11.75,9.4v0.87c-22.01-0.03-35.92,7.58-35.92,23.12
					c0,9.48,7.08,18.37,19.4,18.37c7.57,0,13.91-3.02,17.7-7.87h0.38c0,0,2.51,10.52,16.37,6.5c-0.73-4.38-0.96-9.04-0.96-14.66
					V79.8z M334.69,94.36c0,1.12-0.1,2.28-0.41,3.29c-1.27,4.22-5.64,7.78-11.1,7.78c-4.55,0-8.17-2.58-8.17-8.05
					c0-8.36,9.2-10.67,19.68-10.62V94.36z"/>
				<path class="st0" d="M8.2,35.1c0,0,14.38,58.93,16.68,68.5c2.68,11.17,7.51,15.27,21.42,12.5l8.98-36.54
					c2.28-9.08,3.8-15.54,5.27-24.78h0.26c1.03,9.32,2.49,15.73,4.37,24.81c0,0,3.66,16.59,5.53,25.3
					c1.88,8.71,7.1,14.2,20.73,11.21l21.4-81H95.55l-7.31,35.02c-1.96,10.19-3.74,18.16-5.12,27.48h-0.25
					c-1.25-9.24-2.84-16.88-4.83-26.81L70.44,35.1h-18L44.3,69.89C42,80.47,39.84,89,38.47,98.01h-0.25
					c-1.4-8.48-3.28-19.21-5.3-29.45c0,0-4.83-24.89-6.53-33.46H8.2z"/>
				<path class="st0" d="M161.92,79.8c0-13.79-5.89-25.92-25.79-25.92c-10.22,0-18.34,2.87-22.76,5.43l3.24,11.08
					c4.05-2.55,10.49-4.67,16.6-4.67c10.1-0.03,11.76,5.71,11.76,9.4v0.87c-22.02-0.03-35.92,7.58-35.92,23.12
					c0,9.48,7.08,18.37,19.39,18.37c7.58,0,13.91-3.02,17.71-7.87h0.37c0,0,2.52,10.52,16.37,6.5c-0.73-4.38-0.96-9.04-0.96-14.66
					V79.8z M145.49,94.36c0,1.12-0.1,2.28-0.41,3.29c-1.27,4.22-5.64,7.78-11.1,7.78c-4.55,0-8.17-2.58-8.17-8.05
					c0-8.36,9.2-10.67,19.68-10.62V94.36z"/>
				<polygon class="st0" points="189.34,98.9 189.34,35.1 172.89,35.1 172.89,116.1 189.34,116.1 				"/>
				<path class="st0" d="M404.55,35.1c0,7.77,0,59.75,0,59.75c0,8.24,1.55,14.01,4.87,17.54c2.9,3.08,7.67,5.08,13.39,5.08
					c4.86,0,9.65-0.92,11.9-1.76l-0.21-12.85c-1.68,0.41-3.61,0.74-6.25,0.74c-5.6,0-7.48-3.59-7.48-10.99V69.75h14.32v-15.5h-14.32
					V35.1H404.55z"/>
				<path class="st0" d="M362.09,55.25v60.85h16.97V84.94c0-1.68,0.1-3.15,0.37-4.49c1.26-6.53,6.25-10.7,13.41-10.7
					c1.97,0,3.37,0.21,4.9,0.43V54.26c-1.28-0.26-2.15-0.38-3.74-0.38c-6.33,0-13.54,4.09-16.56,12.85h-0.46V55.25H362.09z"/>
				<path class="st0" d="M200.86,55.25v60.85h16.54V80.42c0-1.67,0.19-3.44,0.78-4.98c1.37-3.59,4.71-7.8,10.05-7.8
					c6.67,0,9.79,5.64,9.79,13.78v34.68h16.52V79.99c0-1.6,0.22-3.52,0.69-4.93c1.36-4.09,4.96-7.41,9.92-7.41
					c6.76,0,10.01,5.54,10.01,15.12c0,0,0,25.71,0,33.34h16.53V80.26c0-18.9-9.6-26.38-20.43-26.38c-4.8,0-8.58,1.2-12.01,3.3
					c-2.88,1.77-5.46,4.28-7.71,7.58h-0.24c-2.61-6.56-8.76-10.88-16.77-10.88c-10.29,0-14.92,5.22-17.72,9.64h-0.24v-8.27H200.86z"
					/>
			</g>
		</g>
	</g>
	<g>
		<path class="st1" d="M590.57,112.4c1.62,0,2.88,1.26,2.88,2.83c0,1.6-1.26,2.85-2.9,2.85c-1.62,0-2.91-1.24-2.91-2.85
			c0-1.57,1.29-2.83,2.91-2.83H590.57z M590.54,112.97c-1.24,0-2.17,1.02-2.17,2.26c0,1.26,0.93,2.26,2.21,2.26
			c1.24,0.02,2.16-1,2.16-2.26c0-1.24-0.91-2.26-2.17-2.26H590.54z M590.11,116.7h-0.66v-2.81c0.26-0.05,0.62-0.1,1.09-0.1
			c0.54,0,0.78,0.09,0.98,0.22c0.15,0.12,0.28,0.34,0.28,0.6c0,0.33-0.24,0.57-0.59,0.67v0.04c0.28,0.09,0.43,0.31,0.52,0.69
			c0.09,0.43,0.14,0.6,0.21,0.69h-0.71c-0.09-0.1-0.14-0.34-0.22-0.67c-0.05-0.31-0.22-0.45-0.59-0.45h-0.31V116.7z M590.13,115.11
			h0.31c0.36,0,0.66-0.12,0.66-0.41c0-0.26-0.19-0.43-0.6-0.43c-0.17,0-0.29,0.02-0.36,0.03V115.11z"/>
	</g>
</g>
</svg>
